<svg width="349" height="137" viewBox="0 0 349 137" fill="none" xmlns="http://www.w3.org/2000/svg">
<path d="M327.167 113.273C338.989 105.127 341.75 89.0941 333.332 77.4631V77.4631L327.061 81.7843C315.238 89.9306 312.478 105.963 320.896 117.594V117.594L327.167 113.273Z" fill="#17AE38" stroke="#352600" stroke-width="4"/>
<path d="M56.5621 63.3904C65.715 52.4912 63.6341 37.1091 51.9144 29.0334V29.0334L44.5549 37.7971C35.402 48.6963 37.4828 64.0784 49.2026 72.1541V72.1541L56.5621 63.3904Z" fill="#17AE38" stroke="#352600" stroke-width="4"/>
<path d="M35.523 123.001C37.4114 104.076 23.5486 87.8676 4.55967 86.7982V86.7982L3.41917 98.2283C1.53081 117.153 15.3936 133.362 34.3825 134.431V134.431L35.523 123.001Z" fill="#17AE38" stroke="#352600" stroke-width="4"/>
<path d="M279.745 17.5095H290.545C303.107 17.5095 313.291 27.6929 313.291 40.2548C313.291 52.8166 303.107 63 290.545 63H279.745C267.183 63 257 52.8166 257 40.2548C257 27.6929 267.183 17.5095 279.745 17.5095Z" fill="#FF7A00" stroke="#352600" stroke-width="4"/>
<path d="M283.327 31.7748C295.355 27.9223 302.012 15.0394 298.198 3V3L296.437 3.56389C284.41 7.41643 277.752 20.2994 281.567 32.3387V32.3387L283.327 31.7748Z" fill="#17AE38" stroke="#352600" stroke-width="4"/>
</svg>
